<svg id="Layer_1" data-name="Layer 1" xmlns="http://www.w3.org/2000/svg" xmlns:xlink="http://www.w3.org/1999/xlink" viewBox="0 0 118.67999 113.39999"><defs><style>.cls-1{fill:none;}.cls-2{fill:#00f900;}.cls-3{clip-path:url(#clip-path);}.cls-4{fill:red;}.cls-5{clip-path:url(#clip-path-2);}</style><clipPath id="clip-path" transform="translate(-407.64001 -199.95999)"><rect class="cls-1" x="512.76001" y="79.83997" width="13.56" height="171.84003"/></clipPath><clipPath id="clip-path-2" transform="translate(-407.64001 -199.95999)"><rect class="cls-1" x="409.67999" y="152.56" width="28.44" height="171.84"/></clipPath></defs><path class="cls-2" d="M525.84,228.52c-.12006,1.08-.12006,3.72-.12006,8.04a21.266,21.266,0,0,1-.84,7.92c-1.8,5.28-5.52,9.12-10.92,11.64V245.08c2.28-1.08,3.6-2.52,3.84-4.2a68.41052,68.41052,0,0,1,.12-13.08q2.16-7.2,5.4-7.2c1.8,0,2.64,1.8,2.64,5.4a17.72378,17.72378,0,0,1-.12,2.52" transform="translate(-407.64001 -199.95999)"/><path class="cls-2" d="M501.72,249.4a26.58217,26.58217,0,0,1,3.72-5.04c.24,0,.48-.12.72-.12a3.51335,3.51335,0,0,1,1.68.96,3.35063,3.35063,0,0,0,2.4.96,8.49118,8.49118,0,0,0,3.6-1.08v11.04c-3,1.44-5.4,1.68-7.32.6a2.43813,2.43813,0,0,0-3.36.6c-2.28,3-4.2,4.44-5.64,4.44a6.59621,6.59621,0,0,1-1.92-.36,7.62769,7.62769,0,0,0-1.8-.36,4.5519,4.5519,0,0,0-3,1.56c-1.32,1.32-2.64,2.64-3.84,3.96a7.96708,7.96708,0,0,1-5.76,2.28,3.76645,3.76645,0,0,1-2.52-.84,2.9576,2.9576,0,0,0-2.04-.96c-2.88,0-5.52,2.04-7.8,6.12v-13.2c1.8-2.52,4.56-3.84,8.16-3.84a5.62515,5.62515,0,0,1,4.32,1.56q1.8,1.8,3.96,0a24.71335,24.71335,0,0,0,4.32-4.8c.96-1.44,1.92-2.16,2.76-2.16a7.2547,7.2547,0,0,1,2.88.96,4.81481,4.81481,0,0,0,1.8.36,5.36324,5.36324,0,0,0,4.68-2.64" transform="translate(-407.64001 -199.95999)"/><path class="cls-2" d="M477.24,285.76c.24,1.56-.48,3.72-2.16,6.36s-3.12,3.96-4.2,3.96a.89923.89923,0,0,1-.6-.12,9.33066,9.33066,0,0,0-6.24-2.28,12.00918,12.00918,0,0,0-9.84,5.04c-5.04,6.48-9.84,9.84-14.52,9.84v-13.2a16.21788,16.21788,0,0,0,12.48-5.28,83.6876,83.6876,0,0,1,6.48-7.08,41.85394,41.85394,0,0,1,3.96-13.68,64.85272,64.85272,0,0,1,6.12-9.48v13.2a4.81323,4.81323,0,0,0-.36,3.24,4.24035,4.24035,0,0,0,1.56,2.76c1.44,1.2,3,2.28,4.44,3.36,1.8,1.32,2.76,2.52,2.88,3.36" transform="translate(-407.64001 -199.95999)"/><path class="cls-2" d="M428.52,306.4a21.42415,21.42415,0,0,0-2.76-.24A14.45911,14.45911,0,0,0,415.68,310c-2.28,2.28-4.2,3.36-6,3.36-1.32,0-2.04-.84-2.04-2.4s.84-3.48,2.4-5.76a32.267,32.267,0,0,1,9.24-8.16,27.502,27.502,0,0,1,10.68-3.84,11.97208,11.97208,0,0,1,4.8.96,14.33662,14.33662,0,0,0,4.8,1.2v13.2a25.25577,25.25577,0,0,1-6.72-.96c-1.44-.36-2.88-.72-4.32-1.2" transform="translate(-407.64001 -199.95999)"/><g class="cls-3"><path class="cls-4" d="M518.76,199.96c1.32,0,2.88.72,4.8,2.04,1.8,1.32,2.76,2.4,2.76,3.36a9.7294,9.7294,0,0,1-1.56,4.92c-1.32,2.16-2.76,3.36-4.56,3.36-1.32,0-2.88-.72-4.68-2.04-1.92-1.2-2.76-2.4-2.88-3.36a12.399,12.399,0,0,1,1.68-5.04c1.32-2.16,2.76-3.24,4.44-3.24" transform="translate(-407.64001 -199.95999)"/></g><g class="cls-5"><path class="cls-4" d="M430.56,270.28c1.32,0,2.88.72,4.8,2.04,1.8,1.32,2.76,2.4,2.76,3.24a10.03321,10.03321,0,0,1-1.68,5.04c-1.2,2.16-2.76,3.24-4.44,3.24a8.876,8.876,0,0,1-4.8-1.92c-1.8-1.32-2.76-2.4-2.76-3.36a10.81078,10.81078,0,0,1,1.68-5.04c1.2-2.16,2.76-3.24,4.44-3.24m-14.88,2.52a8.87593,8.87593,0,0,1,4.8,1.92c1.8,1.44,2.76,2.52,2.76,3.36a10.81045,10.81045,0,0,1-1.68,5.04c-1.2,2.16-2.76,3.24-4.44,3.24a8.25026,8.25026,0,0,1-4.68-1.92c-1.92-1.32-2.88-2.4-2.88-3.36a10.40792,10.40792,0,0,1,1.68-5.04c1.2-2.16,2.76-3.24,4.44-3.24" transform="translate(-407.64001 -199.95999)"/></g></svg>