<svg id="Layer_1" data-name="Layer 1" xmlns="http://www.w3.org/2000/svg" viewBox="0 0 656.53 350.33" width="656.530029296875" height="350.3299865722656"><defs><style>.cls-1{fill:#64bc46;stroke:#100d09;}.cls-1,.cls-2,.cls-3,.cls-4{stroke-miterlimit:10;}.cls-2{fill:#231e1e;stroke:#231f20;}.cls-3{fill:none;stroke-width:2.82px;}.cls-3,.cls-4{stroke:#000;}.cls-4{fill:#231f20;}.cls-5{fill:#fff;}</style></defs><path class="cls-1 svg-elem-1" d="M963.24,324.29a50.57,50.57,0,0,1-4,20.64c-2.86,6.66-7.29,12.91-17,23.75-11.3,12.67-15.66,19.25-18.56,28-2.22,6.64-2.83,11.47-2.6,20.45.23,8.67,1.18,14.39,4.09,24.5,1.32,4.6,4.45,13.67,5.77,16.8.85,2,.77,2.17,1.62-2.09,2.13-10.46,6-18.63,16.1-34.1a157.79,157.79,0,0,0,10.66-18.31c4.42-9.88,5.77-18.69,4.66-30.5l-.16-1.53.47,1.39c1.85,5.36,2.41,14.58,1.31,20.83-1.45,8.14-4.45,16-11.61,30.56-6.12,12.44-9.21,19.89-11.24,27.12a57.88,57.88,0,0,0-2.09,10.08v.77l2.94-.2c9.68-.62,17.19-2.25,24.62-5.31,17-7.05,27.61-20.57,31-39.82.71-4,.79-17.75.17-21.94-3-19.39-10.26-37.44-22.85-57.21-3.55-5.61-11.81-17.22-13.1-18.48C963.35,319.52,963.24,321.52,963.24,324.29Z" transform="translate(-593.46 -319.15)"></path><path class="cls-2 svg-elem-2" d="M927,515h0q5.72,0,5.71,9.64a39.32,39.32,0,0,1-4.53,18.1q-4.71,9.64-11.21,9.64-17.32,0-22.63-6.49-4.33-5.52-5.9-26.57-5.31-49.59-12.2-128.1-.79-11.81,5.7-25.68t11.22-13.87q6.49,0,10.13,40.54t9.55,105.27q1,10.63,3,13.38Q918.58,515,927,515Z" transform="translate(-593.46 -319.15)"></path><path class="cls-3 svg-elem-3" d="M927,515h0q5.72,0,5.71,9.64a39.32,39.32,0,0,1-4.53,18.1q-4.71,9.64-11.21,9.64-17.32,0-22.63-6.49-4.33-5.52-5.9-26.57-5.31-49.59-12.2-128.1-.79-11.81,5.7-25.68t11.22-13.87q6.49,0,10.13,40.54t9.55,105.27q1,10.63,3,13.38Q918.58,515,927,515Z" transform="translate(-593.46 -319.15)"></path><path d="M1028,497.05h0q0,20.07-25.38,33.84-16.53,9.25-44.28,15.74-25.38,5.52-41.12,5.51-6.11,0-6.11-9.64A34.75,34.75,0,0,1,916,524.79q4.71-10,11.21-10l34.63-4.53q1.18-8.46,7.28-21.64,5.33-13,9.65-18.11l27.35,3.55q12.58,4.91,17.22,9.74T1028,497.05Z" transform="translate(-593.46 -319.15)" class="svg-elem-4"></path><path class="cls-2 svg-elem-5" d="M1028,497.05h0q0,20.07-25.38,33.84-16.53,9.25-44.28,15.74-25.38,5.52-41.12,5.51-6.11,0-6.11-9.64A34.75,34.75,0,0,1,916,524.79q4.71-10,11.21-10l34.63-4.53q1.18-8.46,7.28-21.64,5.33-13,9.65-18.11l27.35,3.55q12.58,4.91,17.22,9.74T1028,497.05Z" transform="translate(-593.46 -319.15)"></path><path class="cls-2 svg-elem-6" d="M1210,417.75h0q0,24.39-19.88,43.09-16.32,15.35-35.81,15.35-8.46,0-10-4.92-3.52,2.76-17.31,6.89-14.57,4.13-23.61,4.52a26.44,26.44,0,0,1-16.63-4.92q-7-5.11-8.17-11.8-2.35-12.79-17.12-13.78-11.61-.58-33.25,10.82-26.76,14.17-39.75,35.42L979,470.29a160,160,0,0,1,51.17-43.69q25.57-13.77,46.24-13.77,16.72,0,20.07,17.51,1.57,8.46,4.72,11.41,4.14,3.74,15,3.55,23.22-.8,37.78-16.53A73.13,73.13,0,0,1,1165.33,414q3.74-.19,3.74,5.31a32.84,32.84,0,0,1-2.26,10.82,48,48,0,0,0-2.26,7.09,1.21,1.21,0,0,0,1.37,1.37q13.59-.59,22.43-7.87,5.52-4.51,10.83-13.57,4.13-7.1,5.9-7.28Q1210,409.88,1210,417.75Z" transform="translate(-593.46 -319.15)"></path><path class="cls-3 svg-elem-7" d="M1210,417.75h0q0,24.39-19.88,43.09-16.32,15.35-35.81,15.35-8.46,0-10-4.92-3.52,2.76-17.31,6.89-14.57,4.13-23.61,4.52a26.44,26.44,0,0,1-16.63-4.92q-7-5.11-8.17-11.8-2.35-12.79-17.12-13.78-11.61-.58-33.25,10.82-26.76,14.17-39.75,35.42L979,470.29a160,160,0,0,1,51.17-43.69q25.57-13.77,46.24-13.77,16.72,0,20.07,17.51,1.57,8.46,4.72,11.41,4.14,3.74,15,3.55,23.22-.8,37.78-16.53A73.13,73.13,0,0,1,1165.33,414q3.74-.19,3.74,5.31a32.84,32.84,0,0,1-2.26,10.82,48,48,0,0,0-2.26,7.09,1.21,1.21,0,0,0,1.37,1.37q13.59-.59,22.43-7.87,5.52-4.51,10.83-13.57,4.13-7.1,5.9-7.28Q1210,409.88,1210,417.75Z" transform="translate(-593.46 -319.15)"></path><path class="cls-4 svg-elem-8" d="M863.92,489.22h0q1.38,40.14-27.35,64.15Q809.23,576.2,764,577.77a59.42,59.42,0,0,1-23.81-3.94q-11.8-4.51-11.81-11.41,0-14.17,52.93-25.19,31.1-6.3,43.4-12.59t12.1-15.94q-.19-2.18-5.71-13.58t-5.9-20.86q-.4-7.87,5.9-17.71t12.59-10.23q5.33-.19,12.2,12.2A68.28,68.28,0,0,1,863.92,489.22Z" transform="translate(-593.46 -319.15)"></path><path d="M724.51,482.74h0q0-5.12-12.6-5.11-9,0-22.43,4.33-15.15,4.73-15.15,9.84,0,2.94,5.22,6.79t9.74,3.83q6.29,0,20.75-7.57T724.51,482.74ZM718.8,575h0q0,8.85-4.92,19.28-5.89,12.2-14,12.2-9.64,0-15.74-6.1-4.53-4.53-4.53-8.46,0-4.53,6.5-16.34,7.27-13.38,13.18-13.38T712,566.77Q718.81,571.3,718.8,575ZM1250,502c0,7.35-452.07,139.2-491,150.74q-56.67,16.72-95.43,16.73-28.34,0-46.64-10.63-23.42-13.58-23.41-41.52,0-22.43,12.39-43.49,8.86-15.35,25.19-31.09l21.25-18.89q-5.91-10-5.9-24.4,0-9.24,6.1-21.05c5.38-10,8.34-18,17.92-24.21,12.33-8,32.52-12,51.54-12q23.41,0,31.68,5.11,6.69,4.14,6.69,14.56,0,24.6-20.07,42.9-15.75,14.57-51.75,31.29-17.13,7.88-39.16,23.42-33.06,23.22-33.06,38,0,14.55,21.05,23.61Q657,629.54,685,629.54c13.51,0,37.89.34,71.62-7.28,34.32-7.75,83.12-20,94.22-23C877.43,592.16,1236.63,483.48,1250,502Z" transform="translate(-593.46 -319.15)" class="svg-elem-9"></path><path class="cls-5 svg-elem-10" d="M637.92,639.22l-.54,3.06a17.4,17.4,0,0,1,2.75-2.41,3.73,3.73,0,0,1,2-.73,1.41,1.41,0,0,1,1.15.45,2,2,0,0,1,.38,1.36,3.52,3.52,0,0,1,0,.56q0,.36-.12.78a15.51,15.51,0,0,1,2.64-2.37,3.85,3.85,0,0,1,2.09-.78,1.34,1.34,0,0,1,1.07.47,1.88,1.88,0,0,1,.39,1.26c0,.22,0,.44,0,.68s-.06.48-.11.73l-1.27,7.18s0,.13,0,.24a1.61,1.61,0,0,0,0,.25.35.35,0,0,0,.12.31,1.42,1.42,0,0,0,.62.08h.63a7,7,0,0,1-1.53,1.49,2.53,2.53,0,0,1-1.42.5.77.77,0,0,1-.64-.27,1.34,1.34,0,0,1-.22-.82,4.71,4.71,0,0,1,0-.48c0-.19,0-.4.09-.62l1.23-7.45c0-.17,0-.29.07-.38a1.85,1.85,0,0,0,0-.23.87.87,0,0,0-.18-.58.66.66,0,0,0-.51-.21,3.73,3.73,0,0,0-1.28.34,12.36,12.36,0,0,0-1.78.94l-1.57,9.58H639.5l1.55-9.47c0-.13,0-.25.05-.35s0-.17,0-.23a.85.85,0,0,0-.19-.59.61.61,0,0,0-.51-.22,3.84,3.84,0,0,0-1.2.34,15.27,15.27,0,0,0-1.88.92l-1.51,9.6h-2.32l1.48-9.24c0-.06,0-.15,0-.29a1.89,1.89,0,0,0,0-.88,3.89,3.89,0,0,0-.22-.59l-.43-.85Z" transform="translate(-593.46 -319.15)"></path><path class="cls-5 svg-elem-11" d="M659.63,649a8.77,8.77,0,0,1-2.44,2.57,4.94,4.94,0,0,1-2.75.88,2.41,2.41,0,0,1-2.12-1.13,5.55,5.55,0,0,1-.78-3.16,11.12,11.12,0,0,1,1.73-6.38,5.08,5.08,0,0,1,4.3-2.54,2.76,2.76,0,0,1,2,.75,2.65,2.65,0,0,1,.75,2,3,3,0,0,1-1.29,2.64,6.73,6.73,0,0,1-3.8.89h-1c-.06.37-.11.72-.15,1.06s-.05.66-.05,1a4.09,4.09,0,0,0,.46,2.18,1.54,1.54,0,0,0,1.39.72,5,5,0,0,0,1.72-.37A10.23,10.23,0,0,0,659.63,649Zm-5.33-4.19a5.49,5.49,0,0,0,2.8-1,2.68,2.68,0,0,0,.86-2.15,1.62,1.62,0,0,0-.26-1,.87.87,0,0,0-.72-.35,2,2,0,0,0-1.6,1.16A10.12,10.12,0,0,0,654.3,644.77Z" transform="translate(-593.46 -319.15)"></path><path class="cls-5 svg-elem-12" d="M666.65,632.73l-1.5,9.57a13.8,13.8,0,0,1,2.26-2.4,3.06,3.06,0,0,1,1.81-.76,1.93,1.93,0,0,1,1.72,1.1,6.08,6.08,0,0,1,.62,3,13,13,0,0,1-.16,2.07,13.94,13.94,0,0,1-.48,2,8.76,8.76,0,0,1-2.14,3.71,4.3,4.3,0,0,1-3.06,1.32,3.81,3.81,0,0,1-1.22-.2,3.52,3.52,0,0,1-1.09-.62l-2.17.77,2.52-15.76c0-.19,0-.37.07-.54a3.47,3.47,0,0,0,0-.43,2,2,0,0,0-.15-.68,12,12,0,0,0-.64-1.29Zm-2.84,17.82a2.53,2.53,0,0,0,.64.26,3.08,3.08,0,0,0,.68.08,2.72,2.72,0,0,0,1.5-.44,3.85,3.85,0,0,0,1.16-1.29,10.39,10.39,0,0,0,1-2.68,12.68,12.68,0,0,0,.38-3,2.78,2.78,0,0,0-.36-1.57,1.19,1.19,0,0,0-1.07-.52,2.61,2.61,0,0,0-1.1.3,11.07,11.07,0,0,0-1.54,1Z" transform="translate(-593.46 -319.15)"></path><path class="cls-5 svg-elem-13" d="M678.38,632.7l-2.78,16.94c0,.15,0,.25,0,.31a1,1,0,0,0,0,.16.27.27,0,0,0,.15.25.7.7,0,0,0,.39.09h.74a6.57,6.57,0,0,1-1.48,1.4,2.65,2.65,0,0,1-1.42.48.94.94,0,0,1-.67-.21.82.82,0,0,1-.22-.63,1.9,1.9,0,0,1,0-.31c0-.13,0-.27.05-.43l2.31-14.18a2.94,2.94,0,0,0,.08-.49,3.37,3.37,0,0,0,0-.44,2.17,2.17,0,0,0-.07-.59,1.84,1.84,0,0,0-.21-.51l-.49-.95Z" transform="translate(-593.46 -319.15)"></path><path class="cls-5 svg-elem-14" d="M684.65,639.14a3.76,3.76,0,0,1,3,1.18,4.87,4.87,0,0,1,1,3.35,13.78,13.78,0,0,1-.31,2.87,10.71,10.71,0,0,1-.87,2.49,7.35,7.35,0,0,1-2.18,2.72,5.21,5.21,0,0,1-3,.81,3.37,3.37,0,0,1-2.74-1.26,5.05,5.05,0,0,1-1-3.32,10.88,10.88,0,0,1,1.72-6.36A5.17,5.17,0,0,1,684.65,639.14Zm1.55,4a4.77,4.77,0,0,0-.45-2.31,1.44,1.44,0,0,0-1.31-.79,1.82,1.82,0,0,0-1.29.61,4.91,4.91,0,0,0-1,1.75,16.67,16.67,0,0,0-.82,3,16.31,16.31,0,0,0-.29,3,5.49,5.49,0,0,0,.43,2.48,1.39,1.39,0,0,0,1.29.81A1.8,1.8,0,0,0,684,651a4.79,4.79,0,0,0,1-1.77,19.33,19.33,0,0,0,.84-3A16.1,16.1,0,0,0,686.2,643.15Z" transform="translate(-593.46 -319.15)"></path><path class="cls-5 svg-elem-15" d="M702.18,639.22l-.36,2.31-3.54-1.13a4.48,4.48,0,0,1,.87,1.36,4.23,4.23,0,0,1,.28,1.52,4.07,4.07,0,0,1-1.26,3.05,4.46,4.46,0,0,1-3.23,1.21h-.29l-.44,0a4.92,4.92,0,0,0-.55.77,1.28,1.28,0,0,0-.19.59.61.61,0,0,0,.25.52,3.44,3.44,0,0,0,1.08.39l3.36.85a3.69,3.69,0,0,1,1.7.78,1.83,1.83,0,0,1,.48,1.36,4.35,4.35,0,0,1-2,3.53,7.74,7.74,0,0,1-4.81,1.49,7.39,7.39,0,0,1-3.7-.86c-1-.58-1.51-1.25-1.51-2a2.23,2.23,0,0,1,.91-1.61,14.51,14.51,0,0,1,3-1.82,2,2,0,0,1-.92-.56,1.28,1.28,0,0,1-.31-.84,1.41,1.41,0,0,1,.49-1,13.25,13.25,0,0,1,2.43-1.57,3.83,3.83,0,0,1-2.34-1.25,3.72,3.72,0,0,1-.83-2.49,4.45,4.45,0,0,1,1.31-3.28,4.57,4.57,0,0,1,3.34-1.3,3.62,3.62,0,0,1,1.28.24,4.94,4.94,0,0,1,1.26.7Zm-9.71,12.32a7.29,7.29,0,0,0-1.45,1.64,2.83,2.83,0,0,0-.5,1.46,1.63,1.63,0,0,0,.84,1.44,4.19,4.19,0,0,0,2.29.54,5.63,5.63,0,0,0,3.13-.85,2.39,2.39,0,0,0,1.29-1.95,1,1,0,0,0-.29-.72,2.93,2.93,0,0,0-1.08-.46Zm2.8-11.4a1.71,1.71,0,0,0-1.48,1,5.25,5.25,0,0,0-.59,2.63,3.77,3.77,0,0,0,.48,2.07,1.47,1.47,0,0,0,1.31.73,1.77,1.77,0,0,0,1.58-1,4.94,4.94,0,0,0,.6-2.61,3.78,3.78,0,0,0-.51-2.12A1.58,1.58,0,0,0,695.27,640.14Z" transform="translate(-593.46 -319.15)"></path><path class="cls-5 svg-elem-16" d="M704.18,649.21a1.5,1.5,0,0,1,1.07.35,1.29,1.29,0,0,1,.36,1,2.29,2.29,0,0,1-.4,1.44,1.43,1.43,0,0,1-1.18.49,1.51,1.51,0,0,1-1.07-.33,1.35,1.35,0,0,1-.36-1,2.16,2.16,0,0,1,.42-1.41A1.43,1.43,0,0,1,704.18,649.21Z" transform="translate(-593.46 -319.15)"></path><path class="cls-5 svg-elem-17" d="M712.87,639.25l-1.6,9.47a.37.37,0,0,1,0,.08,3.8,3.8,0,0,0-.08.68.82.82,0,0,0,.18.59.77.77,0,0,0,.57.19,3.34,3.34,0,0,0,1.27-.34,10.35,10.35,0,0,0,1.74-1l1.45-9,2.42-.65-1.65,10.16a2.08,2.08,0,0,0,0,.23q0,.1,0,.24a.47.47,0,0,0,.11.36.93.93,0,0,0,.47.08h.73a8.44,8.44,0,0,1-1.55,1.5,2.42,2.42,0,0,1-1.33.47.82.82,0,0,1-.67-.28,1.23,1.23,0,0,1-.23-.82,3.25,3.25,0,0,1,0-.42c0-.16,0-.32.07-.5l.19-1.07a14.65,14.65,0,0,1-2.6,2.34,3.87,3.87,0,0,1-2.07.75,1.48,1.48,0,0,1-1.14-.44,1.73,1.73,0,0,1-.41-1.23c0-.14,0-.3,0-.51s.07-.49.13-.89l1-6.22a1.52,1.52,0,0,0,0-.19,3.61,3.61,0,0,0,.1-.78,2.61,2.61,0,0,0-.17-.83,7.62,7.62,0,0,0-.53-1.11Z" transform="translate(-593.46 -319.15)"></path><path class="cls-5 svg-elem-18" d="M727.88,639.69l-.47,2.72-.56-.48c-1.13-1-1.93-1.49-2.4-1.49a1.32,1.32,0,0,0-1,.48,1.72,1.72,0,0,0-.42,1.18,1.92,1.92,0,0,0,.21.87,2.54,2.54,0,0,0,.61.81l1.58,1.54a4.51,4.51,0,0,1,1,1.39,3.77,3.77,0,0,1,.33,1.59,4.09,4.09,0,0,1-1.16,3,4,4,0,0,1-3,1.18,7.61,7.61,0,0,1-1.52-.15,8,8,0,0,1-1.45-.42l.45-2.83.51.51c1.13,1.16,2,1.74,2.5,1.74a1.45,1.45,0,0,0,1.18-.6,2.23,2.23,0,0,0,.48-1.46,2,2,0,0,0-.25-1,3.65,3.65,0,0,0-.74-1l-1.48-1.48a5.21,5.21,0,0,1-1-1.37,3.36,3.36,0,0,1-.3-1.43,3.65,3.65,0,0,1,1.2-2.81,4.37,4.37,0,0,1,3.12-1.12,5,5,0,0,1,1,.12A16.23,16.23,0,0,1,727.88,639.69Z" transform="translate(-593.46 -319.15)"></path></svg>
